<?xml version="1.0" encoding="utf-8"?>
<!-- Generator: Adobe Illustrator 16.0.0, SVG Export Plug-In . SVG Version: 6.00 Build 0)  -->
<!DOCTYPE svg PUBLIC "-//W3C//DTD SVG 1.1//EN" "http://www.w3.org/Graphics/SVG/1.1/DTD/svg11.dtd">
<svg version="1.1" id="Layer_1" xmlns="http://www.w3.org/2000/svg" xmlns:xlink="http://www.w3.org/1999/xlink" x="0px" y="0px"
	 width="100px" height="100px" viewBox="0 0 100 100" enable-background="new 0 0 100 100" xml:space="preserve">
<g>
	<path d="M42.243,8.961l-0.749,2.407c-4.103,2.925-7.508,6.331-10.218,10.218c-4.137,5.956-7.5,13.223-10.084,21.8
		c-2.585,8.578-3.878,16.611-3.878,24.101c0,4.815,1.124,9.985,3.371,15.515l-0.75,2.515C12.23,75.172,8.379,64.865,8.379,54.595
		c0-5.92,1.284-11.77,3.852-17.547c3.066-6.776,7.579-12.804,13.535-18.083C30.33,14.97,35.823,11.636,42.243,8.961z"/>
	<path d="M50.215,44.644h1.605c-1.391,7.597-2.435,15.318-3.129,23.164c-0.698,7.847-1.768,13.133-3.21,15.863
		c-1.446,2.728-3.328,4.093-5.646,4.093c-1.284,0-2.407-0.556-3.37-1.659c-0.963-1.106-1.445-2.444-1.445-4.012
		c0-1.251,0.25-2.634,0.75-4.146c0.498-1.518,1.996-4.913,4.493-10.192C44.471,58.98,47.788,51.277,50.215,44.644z M54.174,26.775
		c1.926,0,3.573,0.679,4.947,2.033c1.375,1.356,2.059,3.014,2.059,4.975c0,1.925-0.684,3.576-2.059,4.949
		c-1.374,1.374-3.021,2.06-4.947,2.06s-3.586-0.686-4.977-2.06c-1.391-1.373-2.084-3.023-2.084-4.949
		c0-1.961,0.684-3.619,2.058-4.975C50.545,27.455,52.209,26.775,54.174,26.775z"/>
	<path d="M57.704,85.517l0.803-2.354c3.283-2.354,6.066-4.939,8.347-7.759c2.279-2.817,4.627-6.714,7.032-11.688
		c2.41-4.975,4.379-10.315,5.913-16.023c1.96-7.382,2.942-14.284,2.942-20.703c0-4.779-1.142-9.968-3.424-15.567l0.695-2.461
		c7.737,10.344,11.609,20.65,11.609,30.921c0,5.922-1.304,11.789-3.904,17.601c-2.997,6.741-7.511,12.731-13.536,17.976
		C69.615,79.487,64.124,82.841,57.704,85.517z"/>
</g>
</svg>
